# xmcd
#
# Track frame offsets: 
#        155
#        18354
#        37153
#        57823
#        69866
#        108069
#        125499
#        149383
#        175307
#        190548
#        197393
#        215656
#
# Disc length: 3002 seconds
#
# Revision: 2
# Processed by: cddbd v1.4PL0 Copyright (c) Steve Scherf et al.
# Submitted via: ExactAudioCopy v0.90b3
#
DISCID=a30bb80c
DTITLE=David Jacobs-Strain - Stuck on the Way Back
DYEAR=2002
DGENRE=Blues
TTITLE0=River Was Green
TTITLE1=Bowlegged Charlie
TTITLE2=Poor Black Mattie
TTITLE3=Sidewalk Rag
TTITLE4=Poor Boy/Nobody's Fault
TTITLE5=Black and Blue
TTITLE6=Dark Horse Blues
TTITLE7=Wild Bill Jones
TTITLE8=Linin' Track
TTITLE9=Old Man Dancing
TTITLE10=Cold Mountain Blues
TTITLE11=Broken Wings
EXTD=Submitted by ecto@cox.net
EXTT0=
EXTT1=
EXTT2=
EXTT3=
EXTT4=
EXTT5=
EXTT6=
EXTT7=
EXTT8=
EXTT9=
EXTT10=
EXTT11=
PLAYORDER=
